#File generated from solving marker data for model walk1.trc
name solved_motion
datacolumns 107
datarows 4
range 0.7500000000 0.7750000000
units unknown
enforce_loops no
enforce_constraints no
endheader

time	lower_torso_TX	lower_torso_TY	lower_torso_TZ	lower_torso_RX	lower_torso_RY	lower_torso_RZ	lumbar_roll	lumbar_yaw	lumbar_pitch	neck_roll	neck_yaw	neck_pitch	arm_add_r	arm_rot_r	arm_flex_r	elbow_flex_r	pro_sup_r	wrist_dev_r	wrist_flex_r	arm_add_l	arm_rot_l	arm_flex_l	elbow_flex_l	pro_sup_l	wrist_dev_l	wrist_flex_l	hip_add_r	hip_rot_r	hip_flex_r	ankle_flex_r	subt_angle_r	toe_angle_r	hip_add_l	hip_rot_l	hip_flex_l	knee_flex_l	ankle_flex_l	subt_angle_l	toe_angle_l	knee_flex_r	R.Shoulder_px	R.Shoulder_py	R.Shoulder_pz	R.Scapula_px	R.Scapula_py	R.Scapula_pz	L.Shoulder_px	L.Shoulder_py	L.Shoulder_pz	R.ASIS_px	R.ASIS_py	R.ASIS_pz	V.Sacral_px	V.Sacral_py	V.Sacral_pz	L.ASIS_px	L.ASIS_py	L.ASIS_pz	R.Elbow_px	R.Elbow_py	R.Elbow_pz	R.Wrist_px	R.Wrist_py	R.Wrist_pz	L.Elbow_px	L.Elbow_py	L.Elbow_pz	L.Wrist_px	L.Wrist_py	L.Wrist_pz	R.Thigh_px	R.Thigh_py	R.Thigh_pz	R.Knee_px	R.Knee_py	R.Knee_pz	R.Shank_px	R.Shank_py	R.Shank_pz	R.Ankle_px	R.Ankle_py	R.Ankle_pz	R.Heel_px	R.Heel_py	R.Heel_pz	R.Toe_px	R.Toe_py	R.Toe_pz	L.Thigh_px	L.Thigh_py	L.Thigh_pz	L.Knee_px	L.Knee_py	L.Knee_pz	L.Shank_px	L.Shank_py	L.Shank_pz	L.Ankle_px	L.Ankle_py	L.Ankle_pz	L.Heel_px	L.Heel_py	L.Heel_pz	L.Toe_px	L.Toe_py	L.Toe_pz	
0.7500000000	-0.8211865276	0.2933802028	0.7176952724	89.4689740151	-14.6048165667	3.4874214401	-1.5849154341	20.4857838627	-24.1876240660	0.0000000000	0.0000000000	0.0000000000	-47.6650288590	-10.0000000000	20.4089106349	41.7864617412	50.0007876308	0.0000000000	0.0000000000	-27.8743514273	10.0000000000	2.0247242838	17.7995503925	70.0000000000	0.0000000000	0.0000000000	0.9970424433	17.9334068911	27.1004324628	26.8369460268	20.0000000000	0.0000000000	1.7169859371	14.0332286773	56.2865918593	93.4302416646	16.0918430530	4.1029631661	-0.0290000000	96.5689800616	-0.7636381200	0.0675052400	1.1122028800	-0.9430573700	0.2010532700	1.1227318100	-0.8158529700	0.5180850200	1.1648938000	-0.8250276500	0.1524885300	0.7434276100	-1.0102451800	0.3517603800	0.7887820400	-0.7615468100	0.4222825600	0.7385897200	-0.7832929700	-0.0912912400	0.8936586300	-0.5673842200	-0.1524608200	0.8038021900	-0.9350293600	0.6516884200	0.9517538500	-0.8889419600	0.7833581500	0.7374201700	-0.8180971100	0.0584007400	0.4027611100	-0.7544589800	0.1246096900	0.2745238000	-0.9098143900	0.0429138500	0.1749939100	-1.1252102100	0.0990627600	0.1146239200	-1.1790902100	0.1319860200	0.1503449400	-1.0463168900	0.1601637100	0.0479914100	-0.5640316200	0.4452370900	0.4663104600	-0.5405814200	0.3544008500	0.4180469700	-0.6269808300	0.5079610000	0.1898685000	-0.7318304400	0.4962942800	0.0804927300	-0.8130449800	0.4915621600	0.0841863900	-0.6589939600	0.4186621400	0.0426241800	
0.7580000000	-0.8099899834	0.2941070171	0.7158539463	89.4514772399	-15.1142929503	3.4206395942	-1.6927407107	21.1340427263	-23.5483970333	0.0000000000	0.0000000000	0.0000000000	-47.2418212834	-10.0000000000	19.9023638044	42.2438460806	50.0007876308	0.0000000000	0.0000000000	-27.8877466092	10.0000000000	0.8354744269	18.6133645553	70.0000000000	0.0000000000	0.0000000000	0.6592129772	17.9835795176	26.9105964850	24.5212970863	19.7324193862	0.0000000000	1.4594430613	13.3632303191	55.9376694893	94.8296513948	16.7142380906	3.9568535964	-0.0300000000	97.0659887213	-0.7552921100	0.0683883000	1.1128883100	-0.9346115100	0.2028160200	1.1211909200	-0.8071958600	0.5195002400	1.1631944600	-0.8154977400	0.1549159200	0.7416977500	-1.0018499800	0.3525214200	0.7867055700	-0.7439323700	0.4233223300	0.7369909700	-0.7757478000	-0.0884283100	0.8939275500	-0.5571942100	-0.1495505400	0.8029232800	-0.9316199300	0.6536657100	0.9516032700	-0.8852903400	0.7838711500	0.7358219000	-0.8110996100	0.0590278800	0.4016756000	-0.7482993200	0.1221385500	0.2730184600	-0.9063826300	0.0426088600	0.1755158800	-1.1170205100	0.1043739300	0.1172639600	-1.1723582800	0.1334492600	0.1551905800	-1.0470293000	0.1593344100	0.0485195300	-0.5581324500	0.4457080400	0.4591660800	-0.5298679200	0.3540530400	0.4144383200	-0.6257372400	0.5084220900	0.1891043400	-0.7340162400	0.4975009500	0.0837061700	-0.8136111500	0.4917840900	0.0872192600	-0.6593352700	0.4195055800	0.0422354500	
0.7670000000	-0.7996485923	0.2954648500	0.7145362794	89.5790489662	-15.5031424844	3.5023669910	-1.7297872107	21.4130535681	-22.8260703900	0.0000000000	0.0000000000	0.0000000000	-46.5459363476	-10.0000000000	20.0079741501	41.9730884701	50.0007876308	0.0000000000	0.0000000000	-27.7773304463	10.0000000000	0.2204169977	17.3682457919	70.0000000000	0.0000000000	0.0000000000	0.0483886192	18.0985617692	26.8585529004	22.8999023166	19.5750684694	0.0000000000	1.4271544058	12.8493842485	55.2374479603	95.8698109304	18.2064192229	4.7200833285	-0.0310000000	97.7372452440	-0.7539505000	0.0682892500	1.1129478800	-0.9266011400	0.2054411800	1.1197797900	-0.8005011600	0.5222932100	1.1617257100	-0.8060880700	0.1555457000	0.7412946200	-0.9932984600	0.3550715900	0.7856822500	-0.7288261700	0.4254671600	0.7366075400	-0.7687565300	-0.0846156500	0.8932535400	-0.5492784400	-0.1460078400	0.8026054100	-0.9262435300	0.6539838900	0.9496176100	-0.8837141100	0.7880840500	0.7357995600	-0.8032623300	0.0579553000	0.4008975200	-0.7388968500	0.1212851800	0.2714999100	-0.9042763100	0.0413461900	0.1781306800	-1.1107705100	0.1053683700	0.1214201600	-1.1645083000	0.1356257900	0.1609841800	-1.0435520000	0.1589115800	0.0493237600	-0.5507788700	0.4458295900	0.4527380700	-0.5258089600	0.3567226000	0.4091728800	-0.6244698500	0.5112269300	0.1905668800	-0.7344525800	0.4995784000	0.0840987900	-0.8139357900	0.4940730300	0.0892830700	-0.6617999900	0.4211820100	0.0436303300	
0.7750000000	-0.7917525779	0.2956123461	0.7129781389	89.3014206752	-15.6991170640	3.4725753923	-1.7764113013	22.1519615727	-22.8461992917	0.0000000000	0.0000000000	0.0000000000	-46.2604911605	-10.0000000000	19.4591070431	42.5519068866	50.0007876308	0.0000000000	0.0000000000	-28.2453386063	10.0000000000	0.2244241422	16.3664812825	70.0000000000	0.0000000000	0.0000000000	0.0411894219	17.7608424328	26.9832628091	21.8113159267	20.0000000000	0.0000000000	1.0105601414	12.9913505330	54.6114186865	96.5102433909	20.2583256270	7.3027324630	-0.0320000000	98.6359363289	-0.7415202600	0.0733627600	1.1104849900	-0.9198587000	0.2070198800	1.1183945300	-0.7934367100	0.5235657300	1.1603494900	-0.7984795500	0.1545139500	0.7402749000	-0.9840500500	0.3565046400	0.7830597500	-0.7200398600	0.4262739000	0.7349682600	-0.7603157300	-0.0820253100	0.8909875500	-0.5390783100	-0.1422458200	0.8002156400	-0.9205179400	0.6553531500	0.9488152500	-0.8834400000	0.7939937100	0.7370130000	-0.7965039700	0.0553068500	0.4005566700	-0.7337325400	0.1188493400	0.2722060500	-0.8965308200	0.0415281700	0.1794676100	-1.1069207800	0.1061261900	0.1265477100	-1.1591016800	0.1373161000	0.1680149700	-1.0381557600	0.1610317500	0.0495847200	-0.5443046300	0.4466687300	0.4481091600	-0.5223083500	0.3578508300	0.4023484800	-0.6243094500	0.5157814900	0.1930072300	-0.7343682300	0.5024333500	0.0838029400	-0.8131420300	0.4975058900	0.0879877300	-0.6635100100	0.4220903900	0.0442043900	
